PathFileType	4	(X/Y/Z)	D:\TRACE\spotREDO_2-26-24\spot_Both_Motion_3_4-v60.trc
DataRate	CameraRate	NumFrames	NumMarkers	Units	OrigDataRate	OrigDataStartFrame	OrigNumFrames
100.00	100.00	      31	9	mm	100.00	2626	      7000
Frame#	Time	front left toe			Front right toe			aft left toe			aft right toe			Arm			FL body			FR body			AL Body			AR Body			
		X1	Y1	Z1	X2	Y2	Z2	X3	Y3	Z3	X4	Y4	Z4	X5	Y5	Z5	X6	Y6	Z6	X7	Y7	Z7	X8	Y8	Z8	X9	Y9	Z9	

2626	26.250	-152.81955	76.60994	-439.03336	259.27631	74.93246	-460.83398	-98.77301	2.34140	167.04062	282.51559	20.44156	64.25658	67.65779	749.89124	-758.22174	-33.39794	641.36298	-541.75293	122.11021	646.76019	-551.53345	16.18649	548.70032	335.74054	163.75195	542.76129	328.67685	
2627	26.260	-152.98529	76.87852	-438.92435	259.14392	75.06854	-460.83960	-98.98287	2.36284	167.11893	282.17310	20.38541	64.45923	67.30830	750.13593	-758.13257	-33.62694	641.81982	-541.63373	121.91040	647.08844	-551.52411	16.23871	548.58551	335.71106	163.83125	542.61237	328.61606	
2628	26.270	-153.12462	77.12776	-438.79050	259.14185	75.60349	-460.57703	-99.04234	2.28571	167.10651	281.95248	20.30467	64.54967	67.21320	750.22058	-758.00568	-33.74085	642.10370	-541.66089	121.71920	647.27264	-551.59833	16.36063	548.43347	335.66931	163.98114	542.45361	328.56860	
2629	26.280	-153.24071	77.30738	-438.70920	258.83725	75.81518	-460.56717	-99.14968	2.31659	167.15091	281.73230	20.19759	64.57386	67.11968	750.30884	-757.89038	-33.86835	642.45471	-541.69318	120.86883	647.51105	-551.59845	16.31902	548.29657	335.61163	163.99786	542.31781	328.50998	
2630	26.290	-153.35912	77.46236	-438.55933	258.91003	75.94959	-460.35477	-99.18597	2.23741	167.22888	281.63724	20.19778	64.66000	66.94832	750.32806	-757.68719	-33.93988	642.72418	-541.71948	121.49715	647.63660	-551.46161	16.45905	548.20233	335.58005	164.16347	542.22144	328.47922	
2631	26.300	-153.49918	77.60522	-438.49814	258.82037	76.15771	-460.24677	-99.27206	2.23740	167.29988	281.50238	20.21535	64.70562	66.42262	750.70178	-757.58002	-34.07704	642.87457	-541.69928	121.33824	647.88513	-551.66815	16.50760	548.11401	335.55450	164.25987	542.07892	328.42923	
2632	26.310	-153.66232	77.77708	-438.43402	258.78622	76.41961	-460.06155	-99.30679	2.19989	167.30731	281.28699	20.16436	64.66994	66.27693	751.14056	-757.65863	-34.38399	642.88696	-541.62134	121.17860	647.81299	-551.78790	16.62055	548.15082	335.47839	164.17938	542.11255	328.24466	
2633	26.320	-153.83278	77.90227	-438.29697	258.52911	76.69730	-459.92972	-99.41203	2.15737	167.53743	281.12436	20.21476	64.73639	66.21357	752.13544	-757.88684	-34.58853	642.46234	-541.92419	120.22545	647.45068	-552.00330	16.61645	548.49701	335.33636	164.19405	542.37659	328.07413	
2634	26.330	-154.03850	78.05812	-438.17538	258.32962	76.83012	-459.85364	-99.60887	2.23041	167.68405	280.90646	20.26257	64.76099	66.05282	754.20807	-758.52905	-34.86502	641.93738	-542.28186	120.94814	646.90192	-552.30072	16.87298	549.06201	335.23056	164.62688	542.94403	328.13419	
2635	26.340	-154.16545	78.26220	-437.94064	258.21921	77.27380	-459.55832	-99.74146	2.25601	167.74783	280.77762	20.28760	64.78824	66.45351	757.53479	-758.44647	-35.09737	641.33423	-542.62482	120.50282	646.04791	-552.93744	17.23242	549.57281	335.12854	164.32187	543.38812	327.09604	
2636	26.350	-154.22743	78.50971	-437.76105	257.95499	77.43073	-459.56458	-99.77325	2.26585	167.75327	280.78000	20.26294	64.77210	67.76122	761.57556	-757.98895	-35.06768	640.72131	-542.81915	120.31383	645.67389	-553.16455	17.50068	549.55084	334.55627	164.42357	543.64240	327.01813	
2637	26.360	-154.26337	78.77647	-437.65207	257.64963	77.37331	-459.75415	-99.92620	2.11467	167.76714	280.75101	20.11316	64.64566	68.91717	766.15924	-756.75720	-35.29417	640.66345	-543.33551	120.22874	645.65576	-553.62177	17.70151	549.14624	334.05365	164.58289	543.31958	326.65433	
2638	26.370	-154.36037	79.01855	-437.66754	257.45868	77.40304	-459.83157	-100.08870	1.79207	167.84065	280.79135	19.95634	64.61395	69.61840	770.80804	-755.75616	-35.35747	640.96246	-543.61536	120.22213	646.07098	-553.92969	17.12572	548.55048	333.80347	164.59563	542.73633	326.16736	
2639	26.380	-154.45779	79.25601	-437.62933	257.09369	77.58789	-459.88358	-100.28514	1.51134	167.95190	280.79019	19.91172	64.72951	69.98865	774.62128	-755.09161	-35.22417	641.55920	-543.69580	120.28834	647.06927	-553.93530	17.05316	547.87415	333.54330	164.45699	542.11383	326.07175	
2640	26.390	-154.31940	79.48976	-437.65506	257.33499	77.94591	-459.53275	-100.51606	1.25922	167.80890	280.78915	19.97660	64.87431	70.02409	777.65631	-753.91364	-35.17819	642.57068	-543.79547	120.10122	648.14874	-553.95898	16.94871	546.96466	333.33621	164.20410	541.33990	325.78372	
2641	26.400	-154.25209	79.71748	-437.68097	257.39780	78.22969	-459.39560	-100.63479	1.17122	168.02940	280.70169	20.08573	65.03477	69.59226	779.73041	-753.18213	-35.13266	643.89398	-543.70142	120.56174	649.50299	-553.71320	16.69659	545.84930	333.27417	164.81566	540.51514	326.42923	
2642	26.410	-154.33887	80.02595	-437.74091	257.52383	78.38741	-459.32095	-100.68988	1.13183	168.03174	280.63977	20.10308	65.13859	69.15246	780.79211	-752.25153	-34.81543	645.34924	-543.63696	120.45262	651.10278	-553.56018	16.51277	545.08246	333.20828	163.69153	539.75299	325.63770	
2643	26.420	-154.37343	80.18706	-437.80716	257.51282	78.45116	-459.30206	-100.65404	0.99579	168.36818	280.57541	20.10525	65.23327	68.37868	780.65814	-752.05646	-34.81472	646.67169	-543.40576	120.86847	652.62799	-553.09796	16.48133	543.93750	332.91113	163.56364	538.94543	325.59006	
2644	26.430	-154.54137	80.35384	-437.81616	257.50815	78.54676	-459.27853	-100.73766	0.98113	168.33913	280.35388	20.07101	65.21655	67.15912	779.92035	-752.20453	-34.71554	647.91467	-543.00171	120.59515	654.06366	-553.02075	16.64620	543.52502	333.04797	164.35429	538.48993	326.65961	
2645	26.440	-154.68936	80.43987	-437.78931	257.33084	78.52534	-459.33771	-100.72353	0.98078	168.39714	280.25253	20.03128	65.25346	66.67347	778.73041	-752.14276	-34.75630	648.95819	-542.78125	120.62737	655.06018	-552.67902	16.24023	543.44531	333.25116	164.42149	538.30804	326.69928	
2646	26.450	-154.84233	80.54637	-437.73804	257.30444	78.65282	-459.37399	-100.79123	1.11991	168.40779	280.14148	20.02966	65.24335	66.18667	777.26508	-752.16797	-34.93941	649.96356	-542.56726	120.25397	655.91504	-552.66040	16.35926	543.50531	333.32132	164.46179	538.34821	326.73563	
2647	26.460	-155.08006	80.65884	-437.68332	257.02750	78.75593	-459.50143	-100.89111	1.25377	168.43446	280.04922	20.10039	65.28280	65.59458	776.04279	-752.35767	-35.21820	650.46887	-542.27014	120.16075	656.57611	-552.44769	16.78502	543.52130	333.19821	163.75940	538.47144	325.94180	
2648	26.470	-155.25275	80.58804	-437.63904	256.97714	78.88379	-459.63947	-100.96606	1.45023	168.40082	280.00336	20.10981	65.28562	65.61463	774.65564	-752.42120	-35.64780	650.77283	-542.13464	119.71349	656.91028	-552.46777	16.92369	543.73682	333.29041	163.99240	539.01422	325.95700	
2649	26.480	-155.32832	80.46097	-437.59061	256.86371	78.96073	-459.73245	-100.96745	1.45604	168.07234	280.00278	20.10461	65.26389	65.61468	773.61298	-752.68079	-36.05006	650.87000	-542.15668	119.36027	656.99170	-552.29822	17.00569	544.18610	333.52161	164.17969	539.27167	325.82541	
2650	26.490	-155.37093	80.42651	-437.53870	256.79352	79.02636	-459.68274	-101.00836	1.48310	168.06516	279.89359	20.05814	65.20403	65.81824	773.09204	-752.99286	-36.45502	650.97101	-542.24359	118.30410	657.00787	-552.64740	17.26490	544.51764	333.49628	164.49112	539.57648	325.67130	
2651	26.500	-155.45445	80.34481	-437.53329	256.70657	79.00583	-459.82697	-100.93246	1.54672	168.43277	279.90790	20.06573	65.19788	66.12717	772.93762	-753.07806	-36.85770	650.93213	-542.41315	117.84104	656.81805	-552.83270	17.69835	544.85388	333.42776	164.85461	539.71857	325.49332	
2652	26.510	-155.53593	80.35315	-437.50131	256.66809	78.90725	-459.90057	-100.95260	1.55686	168.44829	279.96182	20.06826	65.08158	66.42628	772.76959	-753.14392	-37.00303	650.78912	-542.58771	117.67498	656.64630	-552.99561	17.91171	544.93884	333.32965	165.07593	539.79419	325.33008	
2653	26.520	-155.60262	80.27882	-437.57587	256.57172	78.86091	-459.93021	-100.98538	1.58092	168.38248	279.86951	20.01861	65.09879	66.66554	772.94250	-753.16748	-37.06453	650.62305	-542.75562	117.61211	656.51843	-553.12762	17.98938	544.92639	333.24368	165.10071	539.77411	325.11832	
2654	26.530	-155.61435	80.21931	-437.64035	256.59076	78.77155	-459.88641	-100.98750	1.55025	168.31288	279.82175	19.98157	65.06535	66.82568	773.29327	-753.15991	-37.07781	650.47418	-542.84814	117.61871	656.42065	-553.25513	18.04277	544.84344	333.11240	165.04553	539.69769	324.92783	
2655	26.540	-155.62245	80.21519	-437.65326	256.62930	78.67654	-459.81998	-101.10503	1.52398	168.31218	279.72321	19.92773	65.07880	66.93569	773.67108	-753.07794	-36.97147	650.45044	-543.01642	118.57365	656.31812	-553.31171	17.89146	544.73267	332.95502	164.88324	539.69769	324.86746	
2656	26.550	-155.58365	80.26059	-437.69858	256.64609	78.64639	-459.78049	-101.16895	1.49073	168.33931	279.63165	19.92359	65.09856	66.67137	774.44861	-753.06293	-36.78400	650.43701	-543.20331	117.96437	656.42639	-553.43213	17.61308	544.66718	332.79752	164.69316	539.70581	324.79111	
